<svg xmlns="http://www.w3.org/2000/svg" viewBox="0 0 25.43 28.96"><defs><style>.cls-1{fill:#46c8b4;}.cls-2{fill:#fff;}.cls-3{fill:none;stroke:#fff;stroke-linecap:round;stroke-miterlimit:10;stroke-width:2px;}</style></defs><title>Asset 2</title><g id="Layer_2" data-name="Layer 2"><g id="Layer_1-2" data-name="Layer 1"><polygon class="cls-1" points="23.3 21.12 12.38 27.47 1.38 21.12 12.31 14.77 23.3 21.12"/><path class="cls-2" d="M12.66,29a.92.92,0,0,1-.45-.12L.44,22.05A.91.91,0,0,1,0,21.27V7.68a.91.91,0,0,1,.44-.77L12.21.12a.89.89,0,0,1,.89,0L24.87,6.91a.89.89,0,0,1,.45.77V21.27a.9.9,0,0,1-.45.78L13.1,28.84A.86.86,0,0,1,12.66,29ZM1.78,20.76,12.66,27l10.88-6.28V8.2L12.66,1.92,1.78,8.2Zm22.65.51Z"/><polyline class="cls-3" points="1.14 21.15 12.64 14.4 12.64 1.04"/><line class="cls-3" x1="24.43" y1="21.27" x2="12.64" y2="14.4"/></g></g></svg>