<svg xmlns="http://www.w3.org/2000/svg" viewBox="0 0 25.32 28.96"><defs><style>.cls-1{fill:#fff;}.cls-2{fill:#46c8b4;}</style></defs><title>Asset 4</title><g id="Layer_2" data-name="Layer 2"><g id="Layer_1-2" data-name="Layer 1"><path class="cls-1" d="M12.66,29a.92.92,0,0,1-.45-.12L.44,22.05A.91.91,0,0,1,0,21.27V7.68a.91.91,0,0,1,.44-.77L12.21.12a.89.89,0,0,1,.89,0L24.87,6.91a.89.89,0,0,1,.45.77V21.27a.9.9,0,0,1-.45.78L13.1,28.84A.86.86,0,0,1,12.66,29ZM1.78,20.76,12.66,27l10.88-6.28V8.2L12.66,1.92,1.78,8.2Zm22.65.51Z"/><path class="cls-2" d="M18,13.68a.23.23,0,0,1-.14,0l-1.64-.94a.31.31,0,0,1-.14-.25V10.56a.29.29,0,0,1,.14-.24l1.64-1a.28.28,0,0,1,.28,0l1.64,1a.27.27,0,0,1,.14.24v1.89a.29.29,0,0,1-.14.25l-1.64.94A.23.23,0,0,1,18,13.68Zm-1.35-1.39,1.35.78,1.35-.78V10.73L18,10l-1.35.78Zm3,.16h0Z"/><path class="cls-2" d="M10.53,22.75a.41.41,0,0,1-.19-.05L8.19,21.45A.36.36,0,0,1,8,21.13V18.64a.37.37,0,0,1,.19-.32l2.15-1.24a.37.37,0,0,1,.38,0l2.15,1.24a.39.39,0,0,1,.19.32v2.49a.38.38,0,0,1-.19.32L10.72,22.7A.45.45,0,0,1,10.53,22.75Zm2.15-1.62Z"/><line class="cls-1" x1="9.39" y1="11.47" x2="17.57" y2="18.86"/><path class="cls-1" d="M18.93,20a.86.86,0,0,1-1.19.15L9.57,12.72a.91.91,0,0,1,1.21-1.34L19,18.77A.84.84,0,0,1,18.93,20Z"/><path class="cls-1" d="M8.81,7.92l.06,0c.53.48.28,1.62-.56,2.54s-1.94,1.29-2.47.81l0-.05C3.88,14.07,3.23,17,4.16,18.86c.91-2.2,3-4.54,5.32-7.11s4.66-5,6.82-6.16C14.41,4.77,11.47,5.7,8.81,7.92Z"/><ellipse class="cls-1" cx="6.97" cy="9.28" rx="1.19" ry="0.78" transform="translate(-4.59 8.23) rotate(-47.9)"/></g></g></svg>