<svg xmlns="http://www.w3.org/2000/svg" viewBox="0 0 25.32 28.96"><defs><style>.cls-1{fill:#fff;}.cls-2{fill:#46c8b4;}</style></defs><title>Asset 3</title><g id="Layer_2" data-name="Layer 2"><g id="Layer_1-2" data-name="Layer 1"><path class="cls-1" d="M12.66,29a.92.92,0,0,1-.45-.12L.44,22.05A.91.91,0,0,1,0,21.27V7.68a.91.91,0,0,1,.44-.77L12.21.12a.89.89,0,0,1,.89,0L24.87,6.91a.89.89,0,0,1,.45.77V21.27a.9.9,0,0,1-.45.78L13.1,28.84A.86.86,0,0,1,12.66,29ZM1.78,20.76,12.66,27l10.88-6.28V8.2L12.66,1.92,1.78,8.2Zm22.65.51Z"/><line class="cls-2" x1="5.04" y1="10.99" x2="5.04" y2="18.4"/><path class="cls-2" d="M5,19.35a.94.94,0,0,1-.94-1V11A.95.95,0,1,1,6,11V18.4A.94.94,0,0,1,5,19.35Z"/><line class="cls-2" x1="9.73" y1="12.59" x2="9.73" y2="18.4"/><path class="cls-2" d="M9.73,19.35a.94.94,0,0,1-.94-1V12.59a.95.95,0,0,1,1.89,0V18.4A.94.94,0,0,1,9.73,19.35Z"/><line class="cls-2" x1="14.42" y1="6.71" x2="14.42" y2="18.4"/><path class="cls-2" d="M14.42,19.35a.94.94,0,0,1-.94-1V6.71a.95.95,0,1,1,1.89,0V18.4A.94.94,0,0,1,14.42,19.35Z"/><line class="cls-2" x1="19.12" y1="10.99" x2="19.12" y2="18.4"/><path class="cls-2" d="M19.12,19.35a.94.94,0,0,1-.95-1V11a.95.95,0,1,1,1.89,0V18.4A.94.94,0,0,1,19.12,19.35Z"/></g></g></svg>